<?xml version="1.0" encoding="UTF-8"?>
<!DOCTYPE svg PUBLIC "-//W3C//DTD SVG 1.1//EN" "http://www.w3.org/Graphics/SVG/1.1/DTD/svg11.dtd">
<!-- Creator: CorelDRAW 2020 (64 Bit) -->
<svg xmlns="http://www.w3.org/2000/svg" xml:space="preserve" width="210mm" height="297mm" version="1.1" style="shape-rendering:geometricPrecision; text-rendering:geometricPrecision; image-rendering:optimizeQuality; fill-rule:evenodd; clip-rule:evenodd"
viewBox="0 0 21000 29700"
 xmlns:xlink="http://www.w3.org/1999/xlink"
 xmlns:xodm="http://www.corel.com/coreldraw/odm/2003">
 <defs>
  <style type="text/css">
   <![CDATA[
    .fil1 {fill:#FEFEFE;fill-rule:nonzero}
    .fil2 {fill:#4F3864;fill-rule:nonzero}
    .fil0 {fill:#BB05AF;fill-rule:nonzero}
   ]]>
  </style>
 </defs>
 <g id="Camada_x0020_1">
  <metadata id="CorelCorpID_0Corel-Layer"/>
  <g id="_2450436589840">
   <path class="fil0" d="M14434.58 14207.28c0,236.36 183.44,416.27 419.8,416.27 239.88,0 419.8,-179.91 419.8,-416.27 0,-239.88 -179.92,-419.8 -419.8,-419.8 -236.36,0 -419.8,179.92 -419.8,419.8z"/>
   <path class="fil1" d="M17706.84 15456.96c-78.25,-238.87 -218.28,-432.44 -424.21,-576.59 -201.81,-148.27 -440.69,-222.41 -708.39,-222.41 -333.61,0 -609.55,107.09 -831.95,321.25 -222.4,210.05 -333.6,473.64 -333.6,790.76 0,317.13 111.2,580.72 333.6,794.89 222.4,210.04 498.34,317.13 831.95,317.13 267.7,0 506.58,-74.14 708.39,-218.29 205.93,-148.27 345.96,-341.84 424.21,-580.72l-831.95 -242.99c-37.06,144.15 -156.5,238.88 -300.65,238.88 -168.86,0 -304.78,-140.03 -304.78,-321.25 0,-160.63 135.92,-296.54 304.78,-296.54 144.15,0 263.59,94.73 300.65,238.88l831.95 -243z"/>
   <polygon class="fil1" points="15285.13,16840.8 15285.13,14699.15 14461.42,14699.15 14461.42,16840.8 "/>
   <path class="fil1" d="M12904.6 15778.21c0,-181.22 127.68,-317.13 280.07,-317.13 152.38,0 280.06,135.91 280.06,317.13 0,164.74 -127.68,300.66 -280.06,300.66 -152.39,0 -280.07,-135.92 -280.07,-300.66l0 0zm114.28 -1129.51c-271.82,0 -498.33,107.09 -683.67,321.25 -181.21,210.05 -271.81,473.64 -271.81,790.76 0,317.13 90.6,580.72 271.81,794.89 185.34,210.04 411.85,317.13 683.67,317.13 168.86,0 329.48,-45.31 473.63,-140.04l0 98.85c0,131.79 -113.26,284.84 -284.09,331.53 -143.33,39.18 -328.49,-91.57 -292.5,-224.45l-772.86 -234.69c-102.26,554.01 139.5,789.5 337.19,925.41 197.69,135.91 452.14,170.06 715.72,170.06 321.25,0 588.94,-94.73 798.99,-284.18 214.16,-185.33 321.24,-420.09 321.24,-704.27l0 -2121.06 -823.69 0 0 98.84c-144.15,-94.72 -304.77,-140.03 -473.63,-140.03z"/>
   <path class="fil2" d="M10635.25 14770.79c-271.82,0 -498.34,107.09 -683.68,321.25 -181.22,210.05 -271.82,473.64 -271.82,790.76 0,317.13 90.6,580.72 271.82,794.89 185.34,210.04 411.86,317.13 683.68,317.13 168.86,0 329.49,-45.31 473.64,-140.04l0 98.85 823.71 0 0 -2141.65 -823.71 0 0 98.84c-144.15,-94.72 -304.78,-140.03 -473.64,-140.03zm-223.88 1083.13c0,-164.75 127.68,-300.66 280.07,-300.66 152.38,0 280.06,135.91 280.06,300.66 0,181.21 -127.68,317.13 -280.06,317.13 -152.39,0 -280.07,-135.92 -280.07,-317.13l0 0z"/>
   <path class="fil2" d="M7146.85 16840.8l0 -1190.26c0,-135.92 78.26,-247.12 189.46,-247.12 102.96,0 185.33,111.2 185.33,247.12l0 1190.26 823.71 0 0 -1190.26c0,-135.92 78.26,-247.12 189.46,-247.12 102.96,0 185.33,111.2 185.33,247.12l0 1190.26 823.72 0 0 -1383.84c0,-222.4 -74.14,-411.85 -226.53,-564.24 -152.38,-152.39 -329.48,-230.64 -539.53,-230.64 -214.16,0 -415.97,115.32 -485.99,185.34 -32.95,37.06 -61.78,70.01 -86.49,107.08 -144.15,-193.57 -345.96,-292.42 -601.31,-292.42 -177.09,0 -329.48,57.66 -457.16,177.1l0 -140.03 -823.71 0 0 2141.65 823.71 0z"/>
  </g>
 </g>
</svg>
